# xmcd
# 
# Track frame offsets:
#     150
#     43050
#     69791
#     102792
#     133146
#     162246
#     206504
# 
# Disc length: 3232
# 
# Revision: 0
# Processed by: cddbd v1.5.2PL0 Copyright (c) Steve Scherf et al.
# Submitted via: fre:ac v1.0.17
# 
DISCID=5a0c9e07
DTITLE=Miranda Hart - Is It Just Me?
DYEAR=2012
DGENRE=Audiobook
TTITLE0=5.1
TTITLE1=5.2
TTITLE2=5.3
TTITLE3=5.4
TTITLE4=5.5
TTITLE5=5.6
TTITLE6=5.7
EXTD=Read by the author
EXTT0=
EXTT1=
EXTT2=
EXTT3=
EXTT4=
EXTT5=
EXTT6=
PLAYORDER=
